HIERARCHY
ROOT Hips
{
	OFFSET 0.000000 121.760803 0.000000
	CHANNELS 6 Xposition Yposition Zposition Xrotation Yrotation Zrotation 
	JOINT Spine
	{
		OFFSET 0.072000 7.257294 -0.789700
		CHANNELS 3 Xrotation Yrotation Zrotation
		JOINT Spine1
		{
			OFFSET 0.000000 12.508769 -0.658067
			CHANNELS 3 Xrotation Yrotation Zrotation
			JOINT Spine1_split
			{
				OFFSET 0.000000 12.508769 -0.658067
				CHANNELS 3 Xrotation Yrotation Zrotation
				JOINT Spine2
				{
					OFFSET 0.000000 12.508769 -0.658067
					CHANNELS 3 Xrotation Yrotation Zrotation
					JOINT Neck
					{
						OFFSET 0.000000 14.033295 7.520400
						CHANNELS 3 Xrotation Yrotation Zrotation
						JOINT Head
						{
							OFFSET 0.000000 8.198502 5.703100
							CHANNELS 3 Xrotation Yrotation Zrotation
							JOINT HeadTop_End
							{
								OFFSET 0.000000 17.760803 13.332701
								CHANNELS 3 Xrotation Yrotation Zrotation
								End Site
								{
									OFFSET 0.000000 0.000000 0.000000
								}
							}
						}
					}
					JOINT LeftShoulder
					{
						OFFSET 6.292450 5.785301 -0.669000
						CHANNELS 3 Xrotation Yrotation Zrotation
						JOINT LeftShoulder_split
						{
							OFFSET 6.292450 5.785301 -0.669000
							CHANNELS 3 Xrotation Yrotation Zrotation
							JOINT LeftArm
							{
								OFFSET 13.907140 -6.093903 1.965100
								CHANNELS 3 Xrotation Yrotation Zrotation
								JOINT LeftForeArm
								{
									OFFSET 34.140198 0.000000 0.000000
									CHANNELS 3 Xrotation Yrotation Zrotation
									JOINT LeftHand
									{
										OFFSET 40.960209 0.000000 0.000000
										CHANNELS 3 Xrotation Yrotation Zrotation
										JOINT LeftHandThumb1
										{
											OFFSET 10.006996 -7.170425 9.573125
											CHANNELS 3 Xrotation Yrotation Zrotation
											JOINT LeftHandThumb2
											{
												OFFSET 1.835007 -1.059448 1.059443
												CHANNELS 3 Xrotation Yrotation Zrotation
												JOINT LeftHandThumb3
												{
													OFFSET 2.112267 -1.219513 1.219518
													CHANNELS 3 Xrotation Yrotation Zrotation
													JOINT LeftHandThumb4
													{
														OFFSET 4.843811 -2.796570 2.796576
														CHANNELS 3 Xrotation Yrotation Zrotation
														End Site
														{
															OFFSET 0.000000 0.000000 0.000000
														}
													}
												}
											}
										}
										JOINT LeftHandIndex1
										{
											OFFSET 18.389847 -0.922348 4.596882
											CHANNELS 3 Xrotation Yrotation Zrotation
											JOINT LeftHandIndex2
											{
												OFFSET 4.711273 0.000000 0.000000
												CHANNELS 3 Xrotation Yrotation Zrotation
												JOINT LeftHandIndex3
												{
													OFFSET 2.886131 0.000000 0.000000
													CHANNELS 3 Xrotation Yrotation Zrotation
													JOINT LeftHandIndex4
													{
														OFFSET 6.145912 0.000000 0.000000
														CHANNELS 3 Xrotation Yrotation Zrotation
														End Site
														{
															OFFSET 0.000000 0.000000 0.000000
														}
													}
												}
											}
										}
										JOINT LeftHandMiddle1
										{
											OFFSET 18.013008 0.000000 0.000000
											CHANNELS 3 Xrotation Yrotation Zrotation
											JOINT LeftHandMiddle2
											{
												OFFSET 4.946693 0.000000 0.000000
												CHANNELS 3 Xrotation Yrotation Zrotation
												JOINT LeftHandMiddle3
												{
													OFFSET 3.342232 0.000000 0.000000
													CHANNELS 3 Xrotation Yrotation Zrotation
													JOINT LeftHandMiddle4
													{
														OFFSET 4.461754 0.000000 0.000000
														CHANNELS 3 Xrotation Yrotation Zrotation
														End Site
														{
															OFFSET 0.000000 0.000000 0.000000
														}
													}
												}
											}
										}
										JOINT LeftHandRing1
										{
											OFFSET 15.849892 -0.102921 -4.126150
											CHANNELS 3 Xrotation Yrotation Zrotation
											JOINT LeftHandRing2
											{
												OFFSET 3.527054 0.000000 0.000000
												CHANNELS 3 Xrotation Yrotation Zrotation
												JOINT LeftHandRing3
												{
													OFFSET 2.961098 0.000000 0.000000
													CHANNELS 3 Xrotation Yrotation Zrotation
													JOINT LeftHandRing4
													{
														OFFSET 4.927200 0.000000 0.000000
														CHANNELS 3 Xrotation Yrotation Zrotation
														End Site
														{
															OFFSET 0.000000 0.000000 0.000000
														}
													}
												}
											}
										}
										JOINT LeftHandPinky1
										{
											OFFSET 12.791824 -0.832031 -6.799156
											CHANNELS 3 Xrotation Yrotation Zrotation
											JOINT LeftHandPinky2
											{
												OFFSET 3.327133 0.000000 0.000000
												CHANNELS 3 Xrotation Yrotation Zrotation
												JOINT LeftHandPinky3
												{
													OFFSET 3.014900 0.000000 0.000000
													CHANNELS 3 Xrotation Yrotation Zrotation
													JOINT LeftHandPinky4
													{
														OFFSET 5.847786 0.000000 0.000000
														CHANNELS 3 Xrotation Yrotation Zrotation
														End Site
														{
															OFFSET 0.000000 0.000000 0.000000
														}
													}
												}
											}
										}
									}
								}
							}
						}
					}
					JOINT RightShoulder
					{
						OFFSET -6.292450 5.785301 -0.669000
						CHANNELS 3 Xrotation Yrotation Zrotation
						JOINT RightShoulder_split
						{
							OFFSET -6.292450 5.785301 -0.669000
							CHANNELS 3 Xrotation Yrotation Zrotation
							JOINT RightArm
							{
								OFFSET -13.907140 -6.093903 1.965100
								CHANNELS 3 Xrotation Yrotation Zrotation
								JOINT RightForeArm
								{
									OFFSET -34.140198 0.000000 0.000000
									CHANNELS 3 Xrotation Yrotation Zrotation
									JOINT RightHand
									{
										OFFSET -40.960209 0.000000 0.000000
										CHANNELS 3 Xrotation Yrotation Zrotation
										JOINT RightHandThumb1
										{
											OFFSET -10.007050 -7.170456 9.573117
											CHANNELS 3 Xrotation Yrotation Zrotation
											JOINT RightHandThumb2
											{
												OFFSET -1.835007 -1.059448 1.059443
												CHANNELS 3 Xrotation Yrotation Zrotation
												JOINT RightHandThumb3
												{
													OFFSET -2.112267 -1.219513 1.219518
													CHANNELS 3 Xrotation Yrotation Zrotation
													JOINT RightHandThumb4
													{
														OFFSET -4.843834 -2.796585 2.796590
														CHANNELS 3 Xrotation Yrotation Zrotation
														End Site
														{
															OFFSET 0.000000 0.000000 0.000000
														}
													}
												}
											}
										}
										JOINT RightHandIndex1
										{
											OFFSET -18.389870 -0.922424 4.596786
											CHANNELS 3 Xrotation Yrotation Zrotation
											JOINT RightHandIndex2
											{
												OFFSET -4.711273 0.000000 0.000000
												CHANNELS 3 Xrotation Yrotation Zrotation
												JOINT RightHandIndex3
												{
													OFFSET -2.886131 0.000000 0.000000
													CHANNELS 3 Xrotation Yrotation Zrotation
													JOINT RightHandIndex4
													{
														OFFSET -6.145920 0.000000 0.000000
														CHANNELS 3 Xrotation Yrotation Zrotation
														End Site
														{
															OFFSET 0.000000 0.000000 0.000000
														}
													}
												}
											}
										}
										JOINT RightHandMiddle1
										{
											OFFSET -18.013008 0.000000 0.000000
											CHANNELS 3 Xrotation Yrotation Zrotation
											JOINT RightHandMiddle2
											{
												OFFSET -4.946693 0.000000 0.000000
												CHANNELS 3 Xrotation Yrotation Zrotation
												JOINT RightHandMiddle3
												{
													OFFSET -3.342232 0.000000 0.000000
													CHANNELS 3 Xrotation Yrotation Zrotation
													JOINT RightHandMiddle4
													{
														OFFSET -4.461754 0.000000 0.000000
														CHANNELS 3 Xrotation Yrotation Zrotation
														End Site
														{
															OFFSET 0.000000 0.000000 0.000000
														}
													}
												}
											}
										}
										JOINT RightHandRing1
										{
											OFFSET -15.849876 -0.102936 -4.126237
											CHANNELS 3 Xrotation Yrotation Zrotation
											JOINT RightHandRing2
											{
												OFFSET -3.527054 0.000000 0.000000
												CHANNELS 3 Xrotation Yrotation Zrotation
												JOINT RightHandRing3
												{
													OFFSET -2.961098 0.000000 0.000000
													CHANNELS 3 Xrotation Yrotation Zrotation
													JOINT RightHandRing4
													{
														OFFSET -4.927200 0.000000 0.000000
														CHANNELS 3 Xrotation Yrotation Zrotation
														End Site
														{
															OFFSET 0.000000 0.000000 0.000000
														}
													}
												}
											}
										}
										JOINT RightHandPinky1
										{
											OFFSET -12.791786 -0.832077 -6.799222
											CHANNELS 3 Xrotation Yrotation Zrotation
											JOINT RightHandPinky2
											{
												OFFSET -3.327133 0.000000 0.000000
												CHANNELS 3 Xrotation Yrotation Zrotation
												JOINT RightHandPinky3
												{
													OFFSET -3.014900 0.000000 0.000000
													CHANNELS 3 Xrotation Yrotation Zrotation
													JOINT RightHandPinky4
													{
														OFFSET -5.847786 0.000000 0.000000
														CHANNELS 3 Xrotation Yrotation Zrotation
														End Site
														{
															OFFSET 0.000000 0.000000 0.000000
														}
													}
												}
											}
										}
									}
								}
							}
						}
					}
				}
			}
		}
	}
	JOINT LeftUpLeg
	{
		OFFSET 13.026900 -6.336304 -1.092800
		CHANNELS 3 Xrotation Yrotation Zrotation
		JOINT LeftLeg
		{
			OFFSET 0.524474 -46.096886 9.782700
			CHANNELS 3 Xrotation Yrotation Zrotation
			JOINT LeftFoot
			{
				OFFSET -0.524474 -53.427422 -12.948200
				CHANNELS 3 Xrotation Yrotation Zrotation
				JOINT LeftToeBase
				{
					OFFSET 0.192200 -14.009700 16.364100
					CHANNELS 3 Xrotation Yrotation Zrotation
					JOINT LeftToe_End
					{
						OFFSET -1.784700 -0.561700 9.474800
						CHANNELS 3 Xrotation Yrotation Zrotation
						End Site
						{
							OFFSET 0.000000 0.000000 0.000000
						}
					}
				}
			}
		}
	}
	JOINT RightUpLeg
	{
		OFFSET -12.883000 -6.336304 -1.092800
		CHANNELS 3 Xrotation Yrotation Zrotation
		JOINT RightLeg
		{
			OFFSET -0.524587 -46.096825 9.782800
			CHANNELS 3 Xrotation Yrotation Zrotation
			JOINT RightFoot
			{
				OFFSET 0.524587 -53.427383 -12.948300
				CHANNELS 3 Xrotation Yrotation Zrotation
				JOINT RightToeBase
				{
					OFFSET -0.192200 -14.009700 16.364100
					CHANNELS 3 Xrotation Yrotation Zrotation
					JOINT RightToe_End
					{
						OFFSET 1.784700 -0.561700 9.474800
						CHANNELS 3 Xrotation Yrotation Zrotation
						End Site
						{
							OFFSET 0.000000 0.000000 0.000000
						}
					}
				}
			}
		}
	}
}
MOTION
Frames: 4
Frame Time: 0.016667
-0.086529 94.466393 -0.178572 -5.399411 -46.427425 -0.217659 9.459025 7.380311 -1.672760 2.187715 0.989896 -0.915630 0.000000 0.000000 0.000000 2.202830 0.982771 -0.894152 0.084653 13.220559 4.538681 8.920926 20.138140 -4.130236 -0.000000 0.000000 -0.000000 1.117175 3.546359 -8.633310 0.000000 0.000000 0.000000 -53.487017 4.935504 -51.503004 -0.000107 -106.358053 -0.000123 1.988611 -7.706145 -15.869243 -6.141218 -11.690802 -6.761704 9.914131 42.595512 3.409863 -0.422815 8.108100 27.509108 0.000004 -0.000004 0.000001 0.255312 3.378215 -45.814334 5.654099 5.847754 -88.067469 2.162144 4.544815 -50.866376 -0.000001 0.000001 -0.000003 -0.461471 3.841591 -39.722676 6.450750 5.820355 -95.892871 2.182895 4.561567 -51.127743 -0.000000 0.000001 0.000000 0.469714 4.966826 -39.799444 8.181038 5.368620 -113.502998 3.200493 5.218121 -63.022968 -0.000001 0.000001 0.000002 -3.762428 9.063699 -45.253818 5.342541 5.829009 -85.005311 8.716839 5.103335 -119.369167 -0.000001 0.000000 0.000001 3.036126 13.027201 -5.371408 0.000000 0.000000 0.000000 -48.713705 27.172830 83.457064 -0.000151 105.988287 0.000143 -8.345348 17.548102 8.775684 -7.341098 13.749659 7.412340 9.855744 -44.489107 -3.903285 -0.115777 -14.513075 -28.973874 -0.000001 0.000000 -0.000001 -0.124372 -2.384788 45.108851 4.500590 -4.654531 88.071137 1.723223 -3.618374 50.920119 -0.000001 0.000000 -0.000001 -0.761619 -2.932906 39.031048 5.133881 -4.632752 95.881642 1.739742 -3.631702 51.181370 0.000001 -0.000000 -0.000001 0.154756 -4.068820 39.122661 6.509728 -4.273604 113.462850 2.549582 -4.153925 63.067337 -0.000001 0.000001 0.000001 -4.198879 -8.025518 44.637769 4.252922 -4.639620 85.014818 6.935971 -4.062632 119.322298 -0.000002 0.000000 -0.000000 -35.094776 6.482932 17.943532 57.627016 -6.303607 4.336288 -19.842589 -8.003855 -15.604783 -1.594038 -0.000009 -0.000002 -0.000000 -0.000000 -0.000000 -25.791003 -8.564298 -30.187916 56.910762 -8.362164 -7.381918 -21.920152 -6.263961 23.241073 -0.013006 -0.000012 -0.000003 0.000000 -0.000000 0.000000 
-0.194452 94.204720 0.486782 -5.368383 -46.248987 -0.032226 9.611789 7.425825 -1.822625 2.382867 1.109463 -1.073440 0.000000 0.000000 0.000000 2.401565 1.100698 -1.045856 -0.057996 13.152760 4.536975 8.891159 19.766185 -3.891121 -0.000000 0.000000 0.000000 1.183352 3.599414 -8.974600 0.000000 0.000000 0.000000 -53.425494 4.522208 -51.883749 -0.000037 -105.213825 -0.000048 2.694940 -6.785471 -16.625741 -6.141215 -11.690806 -6.761700 9.914125 42.595515 3.409867 -0.422820 8.108098 27.509106 -0.000003 0.000001 -0.000001 0.255311 3.378218 -45.814327 5.654101 5.847754 -88.067469 2.162142 4.544813 -50.866379 -0.000001 -0.000001 0.000000 -0.461472 3.841593 -39.722676 6.450745 5.820359 -95.892871 2.182896 4.561566 -51.127736 0.000001 0.000002 0.000002 0.469716 4.966824 -39.799447 8.181043 5.368618 -113.502998 3.200493 5.218125 -63.022968 -0.000001 -0.000001 -0.000000 -3.762430 9.063702 -45.253818 5.342541 5.829011 -85.005311 8.716841 5.103340 -119.369167 0.000001 -0.000002 -0.000004 3.025170 12.911337 -5.539060 0.000000 0.000000 0.000000 -48.147936 26.895818 84.263566 0.000071 105.577178 -0.000093 -8.085370 17.722230 8.888123 -7.341094 13.749658 7.412341 9.855735 -44.489100 -3.903293 -0.115772 -14.513076 -28.973874 -0.000000 -0.000003 0.000000 -0.124372 -2.384789 45.108851 4.500589 -4.654531 88.071137 1.723226 -3.618375 50.920119 -0.000001 -0.000001 -0.000002 -0.761618 -2.932908 39.031055 5.133881 -4.632755 95.881635 1.739742 -3.631703 51.181363 -0.000000 0.000001 -0.000003 0.154758 -4.068821 39.122661 6.509734 -4.273603 113.462850 2.549584 -4.153924 63.067337 -0.000002 -0.000000 -0.000003 -4.198875 -8.025518 44.637772 4.252912 -4.639620 85.014825 6.935971 -4.062629 119.322298 -0.000001 0.000000 0.000000 -35.102098 6.598176 17.839045 58.215260 -6.111518 4.134116 -20.458191 -8.442807 -15.403743 -1.584880 -0.000005 -0.000004 0.000000 -0.000000 -0.000000 -25.785206 -8.490431 -30.787860 57.314078 -8.692121 -7.477443 -21.870413 -5.959792 23.120411 -0.287797 -0.000008 0.046531 -0.000000 -0.000000 0.000000 
-0.338951 94.157104 1.079328 -5.133305 -45.912139 0.308722 9.726044 7.470179 -1.966758 2.523092 1.222472 -1.220269 0.000000 0.000000 0.000000 2.544997 1.213387 -1.187301 -0.119664 13.073303 4.516066 8.975796 19.311226 -3.677645 0.000002 0.000000 0.000001 1.271897 3.450427 -9.352723 0.000000 0.000000 0.000000 -53.737709 4.019014 -51.821062 0.000165 -104.376198 0.000154 3.364572 -5.538217 -17.414110 -6.141217 -11.690805 -6.761707 9.914126 42.595508 3.409861 -0.422816 8.108097 27.509108 0.000000 -0.000000 0.000001 0.255310 3.378219 -45.814334 5.654099 5.847752 -88.067469 2.162143 4.544818 -50.866372 0.000000 -0.000002 0.000000 -0.461472 3.841591 -39.722679 6.450748 5.820359 -95.892871 2.182898 4.561567 -51.127736 -0.000001 -0.000000 0.000001 0.469714 4.966826 -39.799447 8.181041 5.368616 -113.502998 3.200494 5.218124 -63.022961 -0.000001 -0.000001 0.000000 -3.762429 9.063699 -45.253825 5.342543 5.829006 -85.005311 8.716842 5.103339 -119.369167 0.000001 0.000001 -0.000000 3.009247 12.882595 -5.845510 0.000000 0.000000 0.000000 -47.901776 26.454234 85.051660 0.000255 105.041800 -0.000272 -8.061780 17.824033 9.078430 -7.341098 13.749659 7.412339 9.855737 -44.489107 -3.903293 -0.115772 -14.513073 -28.973871 -0.000000 -0.000003 0.000000 -0.124372 -2.384788 45.108851 4.500592 -4.654530 88.071137 1.723225 -3.618374 50.920119 -0.000001 0.000000 0.000001 -0.761619 -2.932906 39.031048 5.133878 -4.632756 95.881642 1.739744 -3.631702 51.181370 -0.000002 -0.000002 -0.000001 0.154756 -4.068821 39.122661 6.509730 -4.273604 113.462850 2.549584 -4.153924 63.067330 -0.000003 0.000001 -0.000001 -4.198878 -8.025516 44.637769 4.252917 -4.639618 85.014825 6.935970 -4.062632 119.322298 -0.000002 0.000000 0.000000 -35.117838 6.765239 17.741398 58.398800 -5.950807 3.893013 -20.842594 -9.052426 -15.204312 -1.565025 -0.000005 0.000000 -0.000000 -0.000000 0.000000 -25.926235 -8.389984 -31.479686 57.692374 -8.688731 -7.388546 -21.021207 -5.639780 23.060080 -1.113739 -0.001571 0.318047 0.000000 0.000000 -0.000001 
-0.523129 94.325768 1.584713 -4.684906 -45.443503 0.780446 9.789848 7.512371 -2.094790 2.594240 1.326386 -1.342159 0.000000 0.000000 0.000000 2.618629 1.318488 -1.304863 -0.089426 12.994047 4.472790 9.137175 18.829717 -3.485251 0.000000 0.000000 0.000000 1.361013 3.142961 -9.684679 0.000000 0.000000 0.000000 -54.368518 3.505239 -51.369918 0.000175 -103.901787 0.000171 3.892658 -4.154473 -18.243930 -6.141220 -11.690800 -6.761706 9.914127 42.595512 3.409863 -0.422819 8.108101 27.509103 0.000001 -0.000001 0.000000 0.255309 3.378221 -45.814331 5.654101 5.847753 -88.067469 2.162143 4.544816 -50.866376 -0.000001 -0.000001 -0.000002 -0.461473 3.841594 -39.722676 6.450750 5.820354 -95.892871 2.182896 4.561567 -51.127740 0.000000 -0.000000 -0.000000 0.469712 4.966829 -39.799447 8.181043 5.368618 -113.502998 3.200496 5.218125 -63.022968 0.000000 0.000001 -0.000000 -3.762431 9.063701 -45.253821 5.342543 5.829007 -85.005311 8.716843 5.103338 -119.369167 0.000001 0.000000 0.000000 2.995730 13.013996 -6.195494 0.000000 0.000000 0.000000 -48.018156 25.955443 85.661999 0.000346 104.429590 -0.000345 -8.242443 17.789052 9.105797 -7.341098 13.749662 7.412340 9.855738 -44.489107 -3.903289 -0.115776 -14.513080 -28.973878 -0.000000 -0.000001 0.000001 -0.124372 -2.384785 45.108847 4.500592 -4.654530 88.071130 1.723223 -3.618374 50.920116 -0.000000 0.000001 0.000002 -0.761617 -2.932902 39.031055 5.133882 -4.632753 95.881642 1.739742 -3.631699 51.181367 -0.000000 0.000000 -0.000000 0.154755 -4.068818 39.122658 6.509728 -4.273605 113.462850 2.549585 -4.153923 63.067337 0.000001 -0.000001 -0.000003 -4.198876 -8.025514 44.637772 4.252916 -4.639619 85.014818 6.935968 -4.062629 119.322285 -0.000000 0.000000 0.000001 -35.149748 6.957598 17.653855 58.183178 -5.828614 3.642581 -20.995607 -9.765499 -15.022605 -1.534996 -0.000017 -0.000001 -0.000000 -0.000002 -0.000000 -26.268802 -8.292646 -32.130508 58.049928 -8.658969 -7.220833 -19.589421 -5.139717 22.700354 -2.290137 -0.009945 0.806095 -0.000000 0.000000 0.000000 
